<svg width="42" height="30" viewBox="0 0 42 30" fill="none" xmlns="http://www.w3.org/2000/svg">
<path fill-rule="evenodd" clip-rule="evenodd" d="M42 26C42 28.209 40.209 30 38 30H4C1.791 30 0 28.209 0 26V4C0 1.791 1.791 0 4 0H38C40.209 0 42 1.791 42 4V26Z" fill="#3F51B5"/>
<path fill-rule="evenodd" clip-rule="evenodd" d="M27 5C21.477 5 17 9.477 17 15C17 20.522 21.477 25 27 25C32.522 25 37 20.522 37 15C37 9.477 32.522 5 27 5Z" fill="#FFC107"/>
<path fill-rule="evenodd" clip-rule="evenodd" d="M19.014 21C18.55 20.383 18.151 19.716 17.838 19H23.163C23.441 18.364 23.659 17.696 23.8 17H17.202C17.07 16.354 17 15.686 17 15H24C24 14.314 23.93 13.646 23.799 13H17.201C17.343 12.304 17.56 11.636 17.838 11H23.163C22.849 10.284 22.452 9.617 21.987 9H19.014C19.451 8.42 19.944 7.878 20.495 7.405C18.747 5.909 16.481 5 14 5C8.477 5 4 9.477 4 15C4 20.523 8.477 25 14 25C17.269 25 20.162 23.425 21.986 21H19.014Z" fill="#FF3D00"/>
</svg>
